<svg xmlns="http://www.w3.org/2000/svg" width="1028.097" height="1028.587" viewBox="0 0 2034.626 2035.596">
  <defs>
    <style>
      .cls-1 {
        fill-rule: evenodd;
      }
    </style>
  </defs>
  <path id="Vector" class="cls-1" d="M1049,21h3c1.17,9.805,9.06,17.46,14,24,2.74,3.627,2.55,8.066,5,12,0.72,1.156,3.21,1.05,4,2,1.49,1.8.67,4.028,2,6h2c3.19,5.331,2.45,12.2,9,14,0.13,10.57,8.8,17.727,13,28,4.41-.96,21.06,3.232,25,1,4.76-2.04,5.13-6.563,10-8V96c9-2.662,4.59-4.766,9-10,1.59-1.889,5.17-1.319,7-3,2.04-1.87,2.01-6.084,4-8,4.29-4.141,9.44-3.795,10-12h3c2.4-4.593,6.6-6.8,8-13h4c1.49-6.316,7.45-6.437,9-13h3c14.69-23.607,55.98-7.733,56,21h3v2c1.26,2.377-1.24,3.251,0,6,6.15,13.662,11.74,32.322,18,44,0.33,3,.67,6,1,9,1.31,3.761,7.22,18.774,10,21,3.55,2.6,6.75,1.6,12,3,22.62,6.022,24.43-16.754,43-19v-3c5.42-1.452,4.6-4.409,8-7l7-1c1.44-1.073,1.47-4.918,3-6,1.95-1.385,4.31-.5,6-2,1.29-1.147,1.2-3.127,3-4h4c1.5-1.065,2.4-4.964,4-6,4.5-2.917,7.44-1,9-7,5.99-1.462,12.32-5.91,19-7,9.5-1.549,25.9,7.235,27,15h3c0.43,4.465,2.79,6.948,4,10v16c2.77,6.018,4.02,9.606,2,15,2.19,4.438,4.04,14.433,5,17,1.17,3.12-1.45,4.814-1,7,0.73,3.541,4.02,11.844,5,15-0.33,3.333-.67,6.667-1,10,1.12,6.455,2.26,17.747,6,21,3.06,4.513,14.03,5.249,18,11,2.54-1.194,5.74-4.168,8-5,1.67,0.333,3.33.667,5,1,1.59-.437,2.79-3.335,4-4l9-2c2.19-1.03,5.08-4.872,7-6h6c1.4-.975,2.27-5.07,4-6,1.67,0.333,3.33.667,5,1,19.69-8.208,36-20.981,56-25,7.59-1.525,13.48,5.061,21,6v3c2.8,1.03,2.1,1.518,6,2v5h3c-0.02,7.013,5.58,15.87,3,25l-2,2c-0.54,3.677,1.97,14.262,1,19-3.16,3.033-.54,13.923-2,22-2.09,11.524-2.33,33.092-3,49,8.69,4.077,13.54,14.036,25,15,6.71-7.011,23.42-5.015,34-9,15.96-6.015,36.31-7.941,51-15,2.06-.99,2.86.962,4,1,3.85,0.13,10.68-2.321,16-1,2.91,0.723,5.41,1.895,10,2,2.6,6.015,10.22,8.919,12,15-0.28,2.272,2.19,17.627,3,24-2.08.372-1.92,0.242-3,1,2.35,4.7-6.95,27.883-9,33-2.09,5.207,2.02,3.862,1,8-0.38,1.535-3.46,3.493-4,5q-1.005,8.5-2,17c-2.98,10.189-7.23,21.125-9,30,4.26,1.464,10.08,9.423,11,14h3v3c27.69,2.945,62.31-4.628,88-1,3.8,0.536,12.63-5.97,19-3,5.04,2.349,12.31,6.859,18,8,1.04,4.555,3.63,6.262,5,8,3.18,4.03,4.16,12.445,5,16,1.81,7.713-8.58,22.057-11,27-0.43.871,2.17,2.059,1,4l-3,1c-1.64,2.7-.35,5.086-2,8-3.65,6.456-8.68,14.265-12,21-3.12,6.316-2.42,12.206-6,18-3.78,6.122-12.41,18.685-13,27,4.08,1.873,7.2,7.944,8,13h3c-0.07,3.042-.76,2.744,0,4,1.75,2.524,1.84,2.639,6,3,3.08-2.727,31.96,7.922,42,6,6.78-1.3,13.7,2.815,21,4,23.03,3.741,44.76-.407,56,26,5.59,13.142-5.65,20.822-7,32h-3v4c-8.44,4.838-11.46,19.671-20,22v4c-4.87,2.012-19.3,22.6-20,29h-4c-1.47,4.892-6.43,11.8-10,15,0.31,7.122,3.94,11.878,6,17,0.94,2.326-.48,5.406,0,8,17.17,3.238,41.02,19.153,58,18v3c9.67,0.853,16.53,5.528,23,9,2.93,1.571,10-.058,12,1,9.1,4.818,24.86,19.874,21,37-1.2,5.316-3.45,8.4-4,14h-4c-0.81,3.064-6.94,11.459-9,13l-6,1c-3.07,2.255-6.95,10.347-10,13-1.97,1.709-5.19,1.216-7,3-9.65,9.526-20.48,18.386-29,29-4.34,5.41-12.05,5.845-14,14,2.43,4.344,2,13.7,2,22,3.39,0.946,3.11.385,4,4,7.2,0.569,5.98,2.816,12,3v3c8.92,2.5,12.01,10.449,23,11v3c10.04,1.426,13.64,9.014,21,13h6c0.33,1,.67,2,1,3a23.5,23.5,0,0,0,12,6v3c10.6,0.273,8.37,4.23,13,10,1.24,1.55,4.86,2.4,6,4,6.07,8.54-.36,31.53-6,39-2.65,3.5-4.8-1.73-7,5-5.53.69-7.49,3.07-12,5v3c-7.25-.4-15.14,5.61-21,10v2c-3.86,2.45-8.35,1.63-12,4-3.51,2.28-7.36,6.77-11,9-2.44,1.49-7.71,1.38-10,3-5.03,3.58-12.21,11.91-19,13-0.11,8.72-3.2,20.46-1,24,2.07,4.41,5.11,8.34,11,9v3c2.09,1.12,1.83,1.43,5,2v4c10.05,2.82,12.41,13.67,22,16v3c4.15,1.49,3.21,3.9,6,6,1.67,0.33,3.33.67,5,1,2.39,1.6,4.27,6.38,6,9,2.36,3.57,10.23,7.86,14,10v3h3c3.77,8.25,15.32,20.65,10,33-1,.33-2,0.67-3,1-0.28.44,2.12,3.19,1,5-1,.33-2,0.67-3,1-3.13,4.13-7.37,11.73-12,14q-6,1.005-12,2v2h-6c-15.83,7.82-37.65,14.5-56,22q-6,1.005-12,2c-3.35,1.79-6.68,5-11,6-0.27,8.63-4.84,15.97-7,24,9.69,5.41,9.71,20.59,20,23,2.7,12.61,18.85,19.73,21,33h4c0.56,4.98,3.09,7.16,5,11h3c-0.07,3.04-.76,2.74,0,4,1.67,1.94,1.44,1.67,5,2,0.9,5.17,3.01,6.79,5,10,5.38,8.67,1.72,26.77-5,35-16.56,15.66-46.86,12.87-70,19h-16c-6.8,3.13-14.11,2.95-22,6-5.27,2.03-6.65-2.74-9,1-3.45,3.37-11.21,16.53-12,22,8.55,5.15,4.06,18.7,14,24-1.62,4.02-.5,2.12,0,8h3c0.71,6.01,4.07,8.81,6,13,5.17,11.27,8.09,20.65,13,32,2.72,6.28,8.34,13.5,10,21,0.59,2.64-1.53,5.38-2,7-3.82,13.09-2.02,13.96-12,21,0.33,0.67.67,1.33,1,2-1.67.33-3.33,0.67-5,1-1.09.55-3.9,3.55-5,4-6.42,2.6-15.64-1.89-26-1-10.07.87-40.35-3.42-51-2-11.14,1.48-27.12-3.98-33-1-2.88,1.61-14.72,17.01-15,22,4.04,5.79,5.12,16.7,7,24v7c0.27,0.75,2.82,1.67,3,2v10c1,0.67,2,1.33,3,2q1.005,9.495,2,19c1.19,2.44,4.05,7.74,5,11v8c0.09,0.22,1.4,2.96,2,4h2s1.24,14.12,1,15c-0.67.33-1.33,0.67-2,1,0.33,1.67.67,3.33,1,5-0.41,1.16-8,15-8,15-2.98,2.87-4.58-.1-6,5-5.73.54-10.83,2.95-17,4-6.4,1.09-13.34-3.5-17-5h-7c-10.11-2.59-22.54-4.05-32-9-6.42-3.36-19.34-1.92-24-4-6.97-3.12-17.76-7.12-25-7-3.19,6.17-13.06,12.37-19,16,1.35,3.88,4.05,9.97,3,15-0.18.88-1.48,3.58-1,6,1.19,6.04,1.9,20.3,3,28,0.38,2.7-2.02,9.57-1,14,1.96,8.48,3.2,24.82,2,31-1.72,8.86.47,17.07-4,23-6.33,8.39-18.8,12.52-28,15-6.62,1.79-21.72-9.17-26-11-8.91-3.81-22.04-7.34-29-13-0.66-.05-4.01,1.48-6,0-0.33-1.33-.67-2.67-1-4-1.64-1.35-6.56-3.28-8-4-3.6-1.81-8.59-.71-12-3-0.33-1-.67-2-1-3-1.03.12-2.08,2.02-4,1-4.43-2.34-10.81-9.67-16-8-7.04,1.56-13.1,7.13-20,10-1.19,12.12-4.17,23.28-7,34-2.17,8.21.19,15.79-1,22-2.05,10.74-4.62,24.75-7,36-2.42,11.42-2.5,24.4-14,26v3c-20.58,2.62-26.11,6.58-43-5-1.04-.71-1.12-3.33-2-4-3.72-2.83-4.62.6-6-5-8.14-1.38-17.17-12.45-23-17-4.02-3.13-12.67-6.49-15-8-1.17-.76-1.03-3.16-2-4-1.67-.33-3.33-0.67-5-1-1.2-.88-1.86-4.1-3-5-3.02-2.4-6.73-1.75-10-4-3.3-2.27.34-6.46-10-7-1.71,3.1-6.19,2.94-9,2v3c-5.7-.08-8.13.97-12,2-1.25,11.69-8.19,22.06-12,32-1.49,3.9-1.07,10.61-3,14h-2c-2.45,3.6.32,4.46-1,8-0.67,1.79-4.11,5.46-5,7-0.33,3.33-.67,6.67-1,10-1,.33-2,0.67-3,1-2.69,5.08-.46,10.86-3,16h-2v7c-4.51,8.42-23.77,22.3-39,18-11.61-3.28-20.02-15.24-26-21-4.13-3.98-4.78-9.97-12-11v-3c-7.38-4.12-12.92-20.72-22-22v-4c-8.81-5.63-15.55-21.54-27-22-4.14,3.48-12.04.79-19,2-1.76,7.38-9.32,14.95-14,22-1.15,1.73-2.89,10.55-4,12-0.85,1.12-4.19.7-5,2v4c-2.76,6.03-8.61,9.22-9,18h-4c-0.66,7.48-6.28,9.97-9,15v4c-4.98,9.36-20.09,27.4-38,23-7.45-1.83-11.08-7.1-19-8v-4h-3v-5c-2.67-.98-1.718-1.28-5-2-1.251-18.4-21.313-30.55-25-48h-3c-1.017-11.2-9.945-13.92-12-24h-3c-0.333-2.67-.667-5.33-1-8-6.1-.78-22.42-4.27-26-2-4.854,2.09-11.683,9.49-13,15h-3v3c-4.845,2.63-5.7,5.85-9,10-1.428,1.79-5.413,2.23-7,4-4.211,4.71-6.791,10.28-11,15-0.666.75-3.483,1.22-4,2q0.5,1.5,1,3c-1.266,1.47-4.775.44-7,3v3c-5.324,6.39-14.93,10.42-17,20-6.46.21-7,2.29-12,3v-1h-1q-0.5,1.5-1,3c-1.673.79-16.863-2.11-19-2v-3h-6c-1.671-5.42-5-4.05-6-10h-3v-3h-3c0.15-13.8-7.626-26.27-11-34v-6c-0.762-1.81-4.332-4.22-5-6-0.794-2.12.75-2.82,1-4-0.665-2.02-3.312-4.5-4-6-2.243-4.88-.9-9.21-3-14-2.523-5.76-5.038-9.44-5-16h-3a40.857,40.857,0,0,0-3-11c-9.2-1.17-13.052-5.36-24-6v3c-10.836.19-16.419,11.91-25,17-3.822,2.27-7.884,2.17-11,5-0.333,1.33-.667,2.67-1,4-1.976,1.74-4.657.46-7,2-3.886,2.55-.894,5.23-8,6v3c-3.11.67-23.907,14.21-25,19-5.224,1.07-9.878,4.15-14,6-7.79,3.5-26.98-6.41-29-11-0.752-1.07-.6-0.95-1-3h-3c-0.569-5.41-3.963-8.67-5-11q-1-13.005-2-26c-1.048-3.67-3.106-10.99-4-15-0.737-3.31,1.525-6.89,1-10-2.449-14.52-7.784-28.27-8-46-6.424-5.01-15.5-13.73-25-14-3.555,2.48-16.518,9.69-20,11-2.666.33-5.334,0.67-8,1-4.813,2.83-11.07,6.96-16,10-2.333.33-4.667,0.67-7,1-9.04,4.56-13.381,10.94-26,12v3c-5.321.55-4.123,2.3-7,4-2.576,1.52-15.652,2.34-21,3l-1-3c-1.9,1.34-.874,1.28-4,2-4.066-4.58-12.951-5.53-16-11-13.707-18.44-1.292-63.19-4-87-1.071-9.42,5.613-27.08,2-33-2.34-4.01-16.359-15.57-22-16-3.382,2.27-9.134.94-13,3l-1,3c-2.461,1.18-3.361-1.1-4-2-2.59,1.59-4.96.52-9,2-1.489.55-2.117,3.5-3,4-2.181,1.23-11.51-.81-16,1-0.528.21-2.24,2.75-3,3-3.357,1.09-8.038-.86-11,0-4.36,1.27-7.984,4.97-12,6-2-.33-4-0.67-6-1-3.678,1.15-11.627,4.97-16,6-10.76,2.52-29.213-7.92-33-13-0.5-.67-4.882-14.51-5-15-1.933-8.04,4.051-25.22,7-31q2-12.495,4-25c0.261-.66,2.877-1.76,3-2v-9h2c-0.333-1.67-.667-3.33-1-5a63.777,63.777,0,0,1,3-9h2q-0.5-3-1-6c1.613-6.07,5.458-13.24,6-21-5.707-4.6-11.89-12.98-15-20-11.811,2.96-25.368,1.45-38,4-3.666-.33-7.334-0.67-11-1-0.333.67-.667,1.33-1,2-4.481,1.3-17.334-1.93-21-1-1.228.31-.838,2.51-4,2-0.423-.07-2.012-1.98-3-2-4.958-.08-13.664,2.31-18,3-2.7.43-6.156-1.51-8-2-20.436-5.43-24.094-9.46-28-28-2.8-13.29,7.472-25.67,12-33v-6h2c1.478-2.15.553-4.64,2-7h2c2.387-4.01,1.514-8.24,4-12h2v-5c1.244-3.37,4.333-6.43,6-9q1-4.5,2-9c0.579-1.17,3.265-2.05,4-3,2.54-3.28,8.222-21.79,8-22-0.451-1.99-10.07-19.47-11-20-6.18-4.31-23.151-3.51-36-6-7.245-1.41-22.84-2.78-31-6-2.023-.8-6.513,1.52-8,1-7.79-2.75-23.013-6.67-32-6v-3c-9.87-1.96-22.47-19.4-17-36,3.052-9.26,12.545-15.83,17-23v-3c1.513-2.49,5.4-4.61,7-7,0.333-1.67.667-3.33,1-5,1.209-1.53,4.72-2.42,6-4,1.718-2.12,2.419-8.09,4-10,1.27-1.54,4.8-1.2,6-3,2.066-3.11,1.758-6.06,4-9,1-.33,2-0.67,3-1v-4c2.643-3.52,6.43-3.34,8-10h3c0.468-4.21,1.188-3.34,2-7h3c0.207-4.98-4.173-21.26-8-26-1-.82-2.942-1.14-4-2v-2c-1.667.33-3.333,0.67-5,1l-2-3c-3.886-2.01-14.4-5.21-17-4-4.05-2.2-11.816-6.1-16-8-4.543-2.07-8.3-.25-13-2-9.929-3.7-19.094-11.42-31-11v-3c-7.791-.19-7.228-3.19-14-4v-3H32c-0.449-6.75-3.355-5.22-5-9-2.9-6.67-.487-19.03-1-25h3l2-9c2.076-.37,1.925-0.24,3-1,3.132-2.83,8.886-7.47,10-12h5a2.907,2.907,0,0,1,1-1v-3c2.076-.37,1.925-0.24,3-1h1v-3h3c5.242-9.37,16.93-15.2,25-22,4.066-3.42,3.276-7.69,10-9v-4h3c2.228-6.56,9.541-6.12,12-13,3.789-4.69,1.218-20.98-1-27-1,.33-2,0.67-3,1v-1c-4.226-1.97-7.3-5.08-11-7-2.66-1.38-5.6-.3-8-2-1.487-1.05-1.5-4.89-3-6-2-.33-4-0.67-6-1-2.655-1.46-5.157-5.62-8-7H62c-1.17-.83-1.673-4.07-3-5-2.624-1.84-8.8-1.95-10-3-2.032-1.78-3.659-5.58-6-7H38c-3.989-2.3-9.513-6.01-12-10-2.273.36-1.514,0.22-5,0v-3c-3.647-1.22-3.2-2.45-8-3-0.787-6.67-4.634-7.52-6-11-0.357-.91,0-21,0-21,7.45-17.42,38.407-32.906,56-41-0.287-2.457-.659-0.482,0-3a14.124,14.124,0,0,0,4,1v-3c11.966-1.644,15.133-12.2,28-13v-4l12-4c0.046-10.413,2.538-18.657,1-27-8.209-2.605-9.826-11.752-16-16-3.1-2.132-6.7-2.243-9-5l-1-4c-1.816-1.4-5.524.625-7-1v-4c-1.527-2.452-10.08-8.374-13-9v-3c-10.761-4.822-18.225-21.318-29-24-0.9-6.65-4.741-8.47-7-13-5.5-11.032,7.938-32.628,12-35,3.156-2.506,10.2-5.815,14-7h7c0.923-.436,1.37-3.65,2-4l6,1c5.576-1.675,14.262-6.874,20-9l9-1c14.435-7.27,27.147-13.592,44-17,0.293-9.249,5.053-14.77,6-26-2.933-1.474-3.223-1.082-4-5h-3c-0.054-2.081-3.094-4.072-1-7l-6-2c-4.133-5.607-9.9-23.5-17-25v-4c-4.968-2.966-19.667-21.77-21-28H91c-0.884-7.82-14.138-22.58-10-32,9.911-22.56,20.564-22.462,47-28,3.63-.76,5.912,1.38,11,0,22.744-6.168,44.125-6.37,68-11,0.752-7.845,7.426-16.088,11-22-4.754-5.728-10.762-29.238-17-31-0.4-14.323-9.559-21.207-14-31-2.214-4.881-1.089-10.606-4-15-0.891-1.345-4.4-2.316-5-4-0.764-2.141-6.815-18.368-6-23,0.951-5.406,4.456-9.719,5-16h3v-4c6.192-2.227,11.023-8.035,18-10,10.768-3.032,18.641,3.484,30,2,11.631-1.519,24.414-.243,37,2,2.034,0.362,5.6-3.5,10-2l1,2,22-1c1.008,0.408-.364,1.494,4,2,4.712-3.959,11.3-8.287,13-15,0.752-1.073.6-.946,1-3h4v-2c-2.26-3.453.14-8.589-2-13-6.614-13.632-10.1-40.021-16-56v-9c-1.933-5.141-8.167-16.115-5-20h-2c-3.519-14.379,9.33-33.714,23-34v-3c7.358-.051,21.5.147,25,2,0,0,2.888,3.672,4,4l5-1c1.842,0.582,9.018,3.465,11,4l5-1v2l8,1v2c0.768,0.393,9.009-.437,11,0,3.313,0.727,8.138,3.85,11,5,3.709,1.491,32,7,32,7,7.44-3.88,13.048-13.058,20-14a28.059,28.059,0,0,0-2-10c-1.734-5.209,2.641-12.176,1-18l-2-1c-0.773-3.089,1.764-2.9,2-4,0.386-1.8-1.8-4.87-2-6q0.5-5.5,1-11c-1.893-7.936-2.353-20.11-1-30,0.753-5.5-4.234-10.712-3-16l2-1c1.437-5.4-2.056-12.055,1-18,1.648-3.207,3.6-1.805,4-8l5-1v-3c5.253-.716,6.283-3.483,10-5,6.029-2.461,10.194,1.01,16,0,0.1-.017,2.352-1.943,4-1l1,3c2.073,1.3,5.566-.4,8,1,3.779,2.18,9.207,7.223,13,9,4.04,1.892,7.012.026,11,2,2.05,1.014,4.814,4.886,7,6,2.364,1.206,4.129-.394,5,0,3.8,1.72,8.682,8.058,13,9,1.178,0.257,1.775-1.9,4-1,1.685,0.685,4.407,4,6,5,2.929-.144,21.514,7.553,24,11,6.177-3.448,15.808-9.572,23-11,0.5-13.966,4.133-34.329,8-44,1.324-3.311-2.013-6.71-1-11,0.943-4,2.038-16.86,4-21h2c0.841-2.073-1.907-9.078-1-13,2.728-11.8,6.529-24.9,15-31,11.806-8.96,35.309-5.129,45,4,4.012,3.779,3.847,6.776,11,8v4h2c0.968-.251.379-0.784,1,0,1.925,1.663,2.292,1.83,3,5h5c2.87,4.925,7.373,5.732,12,9,4.653,3.286,19.017,19.442,29,20v4c4.068,1.367,6.7,4.142,11,6,1.987-4.473,14.491-6.121,21-6,2.768-9.289,7.059-17.966,11-27,1.952-4.475.764-11.859,3-16,3.173-5.874,5.944-7.731,6-18h3c0.007-13.968,14-47.74,26-49V28c7.856-.909,18.73-1.351,26-2,3.068,5.022,11.142,9.627,16,13,10.15,7.049,12.819,21.105,26,27-0.366,4.7,12.161,13.569,10,16l1,1h4v4h3c3.81,9.321,13.825,14.906,19,23,8.341-2.824,16.688-2.29,25-3,1.481-8.5,8.61-12.386,10-21h3c0.021-6.236,7.9-15.472,12-21q0.5-2.5,1-5c5.012-8.722,12.33-18.44,18-27q0.5-3,1-6c2.738-4.388,7.735-5.845,9-12a26.383,26.383,0,0,0,10-5V8c5.7-3.511,16.9-1.12,23-1,3.62,4.744,11.24,5.416,14,11C1048.75,19.073,1048.6,18.946,1049,21Zm14,267h3c1.08-5.939,5.64-7.687,8-12,1.89-3.451,3-9.828,4-13,1.7-5.411-.63-14.5,2-18-2.31-3.2-.64-9.948-4-15-2.87-4.32-11.33-12.272-12-18h-4v-4c-10.28-4.382-23.06-14.374-38-13-34.347,3.159-58.787,34.165-51,67q-0.5,3-1,6c7.4,19.153,33.27,41.628,54,38h12C1043.85,302.218,1061.11,297.443,1063,288ZM715,349v3c-10.621,1.168-18.617,7.414-26,12-5.033,3.126-10.1,3.051-15,6-0.945.569-1.265,3.53-2,4h-6l-2,3-9,3c-5.846,4.283-11.152,10.635-20,12v3c-9.324,1.443-13.04,7.949-19,12-2.282,1.551-6.016.248-8,2-1.332,1.176-1.593,4.99-3,6h-5c-0.716.475-1.293,3.45-2,4-2.132,1.661-5,1.255-7,3q-0.5,1.5-1,3c-2.9,1.936-8.251,3.16-11,5,0.06,1.032.877,3.673-1,5h-5c-3.713,2.041-2.85,5.16-9,6v4h-4c-2.869,4.529-27.842,25.87-33,28q0.5,1.5,1,3c-0.536,1.216-4.811.352-7,2-4.671,3.517-4.049,10.159-12,11-1.168,5.608-4.039,4.127-5,10l-6,1c-1.087,7.8-9.128,8.007-11,17-3.136.552-2.433,0.21-4,2-1.156,1.729-1.586,7.89-4,11-7.97,7.112-19.126,11.9-25,21q-0.5,4-1,8c-2.888,3.584-9.877,4.5-13,8-3.445,3.862-6.756,11.516-9,16v4c-1.273,1.966-5.782,2.625-7,5-0.262.511-4,12-4,12-0.415,2.082,2.442,4.908,1,8-0.509,1.091-3.147,2.494-4,5-0.72,2.115,1.269,4.307,1,5-2.3,5.9-6.683,4.007-7,15h-3c-1.238,7.816-6.807,16.2-10,23v7c-4.373,14.417-4.276,22.531,2,38h3c0.067,2.516-.565,8.6,0,10,1.32,3.26,8.1,8.338,6,12,0.984,1.224,3.339,1.353,4,3,0.387,0.964-1.888,1.887-1,4l3,2-1,2c1.082,2,4.122,4.282,5,6v5c1.171,1.932,2.847-.156,4,5-2.057,1.224-2.912,1.649-4,4,3.805,2.546,8.367,10.758,10,15q0.5,4,1,8c6.3,10.646,12.593,19.836,11,36q0.5,3.5,1,7h-2c-1.85,4.225.931,5.584,0,9-1.434,5.26-5.848,10.618-7,17h-3c-1.114,3.517-8.451,11.1-12,12v3c-7.772,1.942-14.169,8.2-20,11h-5c-1.132.615-1.549,3.347-3,4-3.7,1.663-7.575,1.13-11,3-1.009.551-1.231,3.5-2,4h-6c-0.692.418-4.276,5.518-5,6-2.287,1.522-9.776,3.289-11,2-4.2,3.23-8.486,4.875-13,8v2l-5-1c-3.94,1.3-19.536,13.817-21,13-1.444,0-27.544,13.361-28,14v9c-2.958,4.629,1.933,2.97,0,8-4.74,12.332-4.531,39.6-5,53-0.136,3.88,2.3,9.16,1,15-1.524,6.85-.619,15.53,0,22a105.061,105.061,0,0,1-1,25c-0.87,4.52,4.019,36.48,5,40v14c3.155,13.2,3.708,26.08,7,33q0.5,7.995,1,16c3.17,6.89,3.739,14.76,6,23v8c1,0.67,2,1.33,3,2,0.869,1.77-.792,5.27,0,8,0.667,0.33,1.333.67,2,1,2.228,5.69.4,10.92,3,16h2v9c0.564,1.31,3.478,3.03,4,5,1.587,5.98-2.378,14.05,1,20,1,0.33,2,.67,3,1v4l7,10h3c2.164,1.49,3.322,4.88,5,7h2v4c2.917,7.31,5.639,13.25,9,21q0.5,3,1,6c2.5,4.23,6.323,6.64,7,13h3c1.1,2.36.959,1.78,3,3-0.966,3.89.683,13.7,3,18,2.634,4.89,1.973,7.59,5,13,0.863,1.54,4.189,3.33,5,5,2.045,4.21,2.781,14.1,2,17,1.156,2.9,3.723,8.05,5,11,2.065,4.77,3.7,14.64,8,17,0.968-.25.379-0.78,1,0,2.052,3.43-.2,6.48,6,8,0.372,2.08.242,1.92,1,3,2.241,5.74,8.333,8.69,12,13,0.333,2.67.667,5.33,1,8,0.538,0.79,3.367,1.04,4,2,1.357,2.05.579,7.61,6,9v4c5.634,4.42,22.279,23.77,24,31,2.076,0.37,1.924.24,3,1,4.151,5.21,7.958,15.04,16,16v5c7.828,3.8,12.337,18.76,21,20v3c15.12,0.27,41.837-3.51,51-8,15,2.32,44.4-6.25,61-10,2.666,0.33,5.334.67,8,1,7.3-1.23,18.945-5.32,26-4,6.3,1.18,11.888,2.87,19,3,0.372,2.08.242,1.92,1,3,1.455-2.54-.217-1.13,3-2,0.279,0.61,24.028,19.75,25,20,0.929,6.94,5.786,10.72,8,16v8c0.375,1.42,2.69,4.95,3,6,1.105,3.74-.994,11.21,1,17,0.833,2.42,8.727,36.6,6,44,3.356,6.89,8.8,35.92,7,42a103.317,103.317,0,0,1,6,29c13.576,1.12,19.442,7.37,29,12,2,0.33,4,.67,6,1,0.517,0.33,1.107,2.64,2,3,5.316,2.12,4.785,0,9,3,1.033-.3,2.037-1.84,4-1,3.792,1.63,10.2,6.5,14,8,5.365,2.11,8.611.39,13,3v2c6.3,3.35,16.463,1.86,23,5,23.843,11.46,46.311,9.84,69,19,11.651,4.71,20.888.74,33,4,11.91,3.2,28.876,6.02,44,8,2.147,0.28,8.5-.84,10-1,6.649-.69,13.709,1.33,18,2,2.333-.33,4.667-0.67,7-1,0.333,0.67.667,1.33,1,2,8.019,2.84,27.17-2.5,36-1,10.1,1.72,27.27,1.36,35-1,5.66-1.73,10.1,3.5,15,2,6.57-2.01,18.9-2.14,25-3,3.94-.55,9.74-3.4,14-3,5.65,0.53,17.49-2.15,22-4,2.67,0.33,5.33.67,8,1v-2c3.49-1.28,7.77,1.63,13,0,0,0,2.78-.88,3-1v-2c1.67,0.33,3.33.67,5,1,2.01-.35,6.34-2.51,8-3,3.53-1.04,15.45-.68,16-1,4.35-2.5,11.99-2.93,15-4,3.31-1.17,6.45-3.96,10-5q8.505-1.005,17-2c37.62-14.21,76.98-26.4,108-43,1.48-13.77,4.96-29.4,8-41,1.42-5.4-1.13-9.32,0-13,0.25-.81,2.79-1.63,3-2,0.95-1.7-1.63-9.42-1-12,0.67-.33,1.33-0.67,2-1q0.495-7.5,1-15c0.97-3.71,3.39-11.24,4-15,0.37-2.28-1.91-4.58-1-8,2.04-7.72,4.56-16.61,6-24,0.19-1-1.76-3.55-1-6,2.51-8.1,8.11-12.71,9-21,2.08-.37,1.92-0.24,3-1,9.77-9.9,16.17-17.39,30-23h8c10.71-4.67,18.89-.59,29,2,3.45,0.88,9.38-1.33,15,0,20.18,4.79,41.59,6.31,60,10,7.95,1.59,26.33,5.49,30,5,7.93-1.07,13.66,4.66,19,2a14.092,14.092,0,0,0,9-12c2.08-.37,1.92-0.24,3-1,5.31-4.88,10.16-10.65,15-16-0.75-1.07-.6-0.95-1-3h3c1.13-3.32,2.16-3.56,5-5v-3h3c1.99-6.98,7.94-8.24,9-16h3v-2c0.75-1.07.6-.95,1-3-2.39-.84-1.64-0.4-3-2,4.72-1.94,8.06-4.21,9-10h3c2.2-6.95,8.39-17.65,12-26,1.45-3.35,1.75-7.45,3-10-0.09-1.31-1.77-1.73-1-4,0.94-2.78,4.94-4.65,6-7v-7a213.9,213.9,0,0,1,24-46c-1.23-10.41,5.84-15.16,9-24,1.48-4.14.14-6.31,2-10,1-.67,2-1.33,3-2,1.92-4.17.04-7.25,2-11,2.01-3.83,4.75-5.39,6-9v-6c1.16-3.7,4.46-7.96,6-11,0.33-2.33.67-4.67,1-7,1.41-2.2,5.77-4.59,7-7,1.89-3.72.97-10.61,3-14h2c0.47-.66,4.86-9.68,5-10,0.94-2.17-1.33-2.92-1-4,2.13-6.9,5.71-20.93,8-26v-9c4.17-10.93,5.09-20.05,14-26v-6h3v-1c-3.55-7.29,9.17-33.17,13-40-0.02-7.55-.25-16.75,5-27-0.67-1-1.33-2-2-3,0.95-4.23,4.98-8.56,6-13,0.66-2.9-1.62-7.07-2-12,2-.33,4-0.67,6-1,1.19-26.41,1.28-60.92,2-92,0.1-4.234-2.53-12.627-3-14q0.495-6.5,1-13c-2.31-10.082-3.64-17.8-3-28-8.57-5.913-30.87-20.289-43-21v-3c-6.9-1.57-12.16-5.6-17-9-3.31-2.325-8.62-.547-12-3-0.33-1.333-.67-2.667-1-4-4.38-3.365-11.6-1.8-16-5-0.33-1-.67-2-1-3a91.342,91.342,0,0,0-8-5c-3.26-1.616-4.33,1.565-7,0-0.33-1-.67-2-1-3a73.252,73.252,0,0,0-7-4l-9-2v-3c-2.57-2.363-7.71-1.39-10-4-3.92-4.464-5.6-11.106-12-13-0.87-3.687-3.02-3.587-4-6,0.33-1.333.67-2.667,1-4-0.35-.943-3.6-2.312-4-3-0.39-.67-1.88-10.555-2-11-2.92-10.887,2.03-16.444-1-23,3.95-7.792,17.17-32.907,17-39h3c2.41-14.331,14-20.222,15-36h3c1.44-11.277,10.77-22.418,16-31,1.69-2.769,2.45-11.784,4-14,0.82-1.17,4.11-1.638,5-3,2.57-3.933,3.63-9.338,4-15-3.96-1.379-7.32-10.021-8-15h-3c-0.49-4.331-10.71-23.442-12-25-1.97-2.376-3.45-.48-5-4-0.88-1.295-.89-2.467-1-5h-3c-1.15-5.841-18.33-30.818-23-32-0.2-2.328-.19-2.826-1-4-2.7-6.432-9.94-7.36-11-15h-3c-1.59-9.072-5.44-8.143-10-13-1.88-2-1.31-5.794-3-8-1.32-1.721-4.56-2.415-6-4-0.33-1.333-.67-2.667-1-4-2.43-3.366-7.35-4.909-10-8-0.67-2-1.33-4-2-6-2.45-2.577-6.22-3.682-9-6-1.34-1.118-.81-3.714-2-5-2.16-2.331-5.58-2.844-8-5-0.33-1.333-.67-2.667-1-4l-5-1c-0.67-2-1.33-4-2-6-2.16-3.1-5.96-3.608-9-6-1.93-1.517-2.21-5.36-4-7-4.69-4.285-15.83-14.4-22-16v-3c-3.85-1.637-4.2-4.023-9-5v-3c-4.08-1.574-3.94-4-9-5v-3h-5c-0.97-4.06-1.18-4.6-6-5v-4h-3c-2.91-5.812-11.08-7.065-16-11-7.08-5.656-11.98-11.723-20-17-2.92-1.923-7.46-.748-10-3-0.33-1.333-.67-2.667-1-4l-9-3c-1.39-1-2.69-5.189-4-6h-7c-0.37-2.076-.24-1.924-1-3-6.96-5.913-23.59-16.545-34-18v-3c-11.36-.626-25.59-13.958-35-18h-6c-15.15-7.959-33.63-14.943-49-23-5.16-2.706-11.6-.224-17-3v-2h-4c-1.69-.794-6.27-4.565-8-5-1.1-.276-1.9,2.082-4,1-10.27-5.3-27.53-12.082-40-11v-3c-17.42-.158-32.4-8.558-51-10-4.34,6.974-18.01,13.918-19,22h-3v3h-3v4h-4c-4.51,6.724-12.71,15.2-20,19v3h-3c-0.33,1.666-.67,3.334-1,5-3.74.781-6.39,3.78-9,6,0.75,1.073.6,0.946,1,3h-4c-3.37,8.184-11.33,10.265-17,16-0.33,1.333-.67,2.667-1,4h-3c-3.49,3.377-5.15,10.122-9,13-8.67,6.473-35.98,19.776-52,14v-2c-0.19-.129-5.19,2.639-8,1,0,0-3.81-3.9-4-4-7.632-3.819-17.2-4.63-21-12-0.752-1.073-.6-0.946-1-3h-3c-1.1-2.356-.959-1.78-3-3v-3h-4c-0.372-2.076-.242-1.924-1-3-3.839-3.782-12.559-15.258-18-16v-3c-7.639-3.11-12.041-12.115-17-18-1.668-1.979-4.911-2.3-7-4-2.675-2.179-3.466-6.762-6-9-1.271-1.123-3.853-.8-5-2-3.99-4.189-2.711-7.583-10-9v-3c-2.464-1.533-2.276-2.291-6-3v-3c-5.241-1.874-10.384-9.115-14-13a36.166,36.166,0,0,0-15,4l-15,1c-0.814.3-1.591,2.761-2,3-1.721,1-3.162-.771-4-1-2.807,1.118-9.275,3.6-12,5l-5-1c-2.836.67-9.358,3.845-12,5l-9,1c-8.395,2.765-15.915,6-25,9-4.389,1.449-7.064.1-11,2-1.754.845-3.168,4.136-5,5-3.349,1.579-5.5-.85-8,0-5.878,2-32.68,17.151-37,15C722.44,346.209,721.066,348.565,715,349Zm339,98h3c-0.04,2.433,11.73,25.279,15,27h6c1.69,1.142,4.9,1.066,8,1,3.27-7.529,9.23-10.946,15-16,1.19-1.042.93-3.757,2-5,3.26-3.8,15.8-17.58,20-19v-4c4.42-.831,6.89-3.558,10-5l17,1a19.385,19.385,0,0,0,8,8c-0.17,1.252,2.27,13.575,4,17l3,1c-0.33,1.666-.67,3.334-1,5,0.45,1.635,3.38,4.395,4,6,5.55,14.377,4.55,32.024,23,33,12.02-11.282,30.44-21.962,44-32v-3c9.66-.7,9.93-3.166,21-3,3.9,4.549,10.38,3.949,11,12h3c-0.11,16.061,2.39,24.481,6,38,0.06,0.21-2,6-2,6h2c0.69,1.463,2.82,16.517,3,20,0.8,0.143,13.6,4.626,14,5,5.55-4.334,14.94-8.385,21-12,3.25-1.938,7.14.057,10-2,0.33-1,.67-2,1-3,3.07-2.151,6.42-1,10-3v-2l6-1c0.98-.42,4-4,4-4,2.27-1.236,17.62,3.119,20,3,1.57,5.979,6.82,11.185,8,16,0.26,1.063-2.55,20.033-3,23-0.63,4.188,1.74,11.336,1,16a128.584,128.584,0,0,0-2,23,27.057,27.057,0,0,1,10,7c15.34,0.3,38.21-13.781,52-12,5.29,0.683,10.4-6.3,18-1,22.63,9.583,6.45,36.44,5,53h1c1.77-2.151,3.41-2.571,7-3,2.04,6.589,8.24,15.906,6,20-1.18.8-1.68,0.773-4,1-1.47-2.933-1.08-3.223-5-4-0.05-7.1-1.38-2.811-3-9h-3v-1c0.88-1.72.89-1.278,0-3-1.12,11.615-4.98,16.385-6,29,3.54,1.316,6.18,4.969,8,8,4.66-1.4,6.27,1.075,12,0,19.47-3.652,36.78-2.253,59-2,2.5,5.286,5.83,3.476,6,12,5.79,3.728.57,12.177-1,17-0.34,1.051,2.05,1.9,1,4h-2c-0.33,2-.67,4-1,6-0.44.638-3.59,1.361-4,2-0.33,2.666-.67,5.334-1,8-0.43.888-3.64,2.341-4,3,0.33,1.667.67,3.333,1,5-1.33.667-2.67,1.333-4,2a75.763,75.763,0,0,0-4,7c0.33,1,.67,2,1,3-0.93,2.551-4.2,5.2-5,8-1.95,6.84,3.08,10.452,4,15,6.75,0.492,14.44,2.9,19,4l8-1c8.77,3.544,29.44,5.027,42,10,2.28,3.652,6.61,7.807,8,12,3.03,9.142-14.16,28.01-19,33-0.67,2.666-1.33,5.334-2,8-3.54,4.584-11.11,8.866-12,16h-3c-0.91,2.424-1.07,1.59-2,4-2.51,4.155.62,9.474,2,15,8.73,0.854,27.61,10.22,35,14h7c4.19,2.289,7.94,3.431,12,6,5.53,3.5,12.38,4.691,14,12-1.37,1.876,1.62,1.133,1,5-0.8,4.934-3.44,9.635-4,15-6.5,1.532-5.1,6.83-12,8v3c-3.99,1.488-13.44,9.189-14,14-4.92.747-17.63,12.439-21,16,2.09,3.171,2.54,10.774,3,15,11.47,0.448,27.23,21.722,41,21,0.37,2.08.24,1.92,1,3,6.53,5.89,15.6,7.93,17,19-1.48,2.39-1.54,9.68-1,11-1.78,3.09-4.08,3.38-5,8-5.55,1.06-27.76,14.19-29,19-6.01.56-21.95,8.85-24,13-2.98,3.74-2.31,9.25-2,14,3.99,1.6,2.58,3.3,8,4,0.37,2.08.24,1.92,1,3,4.36,4.22,9.26,10.44,16,12v4c6.37,2.26,7.83,8.81,15,10v4c8.01,3.01,9.08,12.06,10,22-4.52,4.02-6.16,11.31-13,13-3.85-.85-10.59,4.34-15,6-4.23,1.59-12.3,4.13-15,3-7.12,3.8-15.98,9.22-26,10-0.74,5.41-4.41,11.82-2,17,2.67,5.73,8.79,7.05,10,15h3c1.34,4.61,2.33,3.7,5,5-0.27,8.72,11.14,12.23,13,22h3c0.33,2,.67,4,1,6h2c4.57,11.14-6.95,26.45-16,28-3.11-1.49-13.58,2.41-18,3-4.11.55-7.34-.7-10,0-1.06.28-.56,1.89-3,2-2.35.1-3.73-1.83-7-1-3.97,1.01-7.94,3.24-11,4-3.84.95-6.27-1.52-10,1-1.72,2.28-5.4,9.14-6,12,4.68,5.95,9.13,16.04,12,23,0.67,3.33,1.33,6.67,2,10,1,0.33,2,.67,3,1,1.38,2.19,5.69,11.62,4,13,1,0.33,2,.67,3,1,0.33,2.33.67,4.67,1,7h2c3.32,6.2-3.39,13.01-4,19-3.78.79-5.83,2.05-9,4-0.33,1-.67,2-1,3q-9.495-.495-19-1c-19.65-.04-29.54-1.85-46-3-1.98,3.74-6.89,8.09-10,11,5.84,7.67,1.93,13.98,5,23,3.51,10.33,7.62,21.97,11,34,1.22,4.33-1.35,9.55-2,15h-3v4c-14.94,7.86-13.42,7.24-29,3h-7c-0.33-1-.67-2-1-3h-1c-2.22,3.09-10.18-2.15-12-3h-10c-2.64-.83-7.56-4.36-10-5-3.03-.8-5.61.35-9-1a18.2,18.2,0,0,1-5,7c-1.33.33-2.67,0.67-4,1v18c3.68,5.77,3.19,41.49,2,51-6.23,3.34-6.41,9.99-16,11-6,3.8-14-3.04-18-5-12.07-5.92-39.6-20.72-52-20v3c-2,.33-4,0.67-6,1-0.31,6.39-2.88,11.43-4,16,0.33,3.33.67,6.67,1,10-1.05,3.16-3.01,10.73-4,14,0.33,2.33.67,4.67,1,7h-2v8c-1,3.32-2.09,9.11-5,13-4.71,5.01-11.29,7.96-20,9-3.12-3.56-9.19-4.09-13-7-6.84-5.22-13.75-14.67-23-17v-3c-2.08-.37-1.92-0.24-3-1-4.92-1.96-12.91-7.86-16-12q-6.495,1.995-13,4c-3.06,7.16-3.36,14.79-7,22-1,.33-2,0.67-3,1-2.02,3.49-1.21,11.1-3,15-2.57,5.6-8.5,16.1-7,22-6.82,1.39-8.59,7.46-16,9-2.45-2.55-7.84-.92-13-1v-3h-2c-1.07-.75-0.95-0.6-3-1v-4c-5.76-2.72-8.15-9.46-15-11-0.22-3.84-1.2-6.22-2-7-6.88-7.66-16.33-14.34-22-23a82.245,82.245,0,0,1-14,1c-2.24,5.51-5.33,7.94-6,15h-3c-1.3,2.42-1.8,2.83-2,7-2.55.88-19.94,27.34-21,34-4.62.59-5.72,3.09-9,4-3.9,1.08-8.37-.2-13,0-2.59-3.44-7.39-4.81-10-8-3.25-3.98-4.23-8.58-7-13-1-.33-2-0.67-3-1-1.294-2.06-2.5-10.72-4-13h-2c-1.876-2.29-2.746-5.08-4-8h-3c0.06-2.9.048-5.47-1-7-1.718-4.3-4.184-3.37-5-9-6.449-.22-10.586-2.82-14-1-1.333.33-2.667,0.67-4,1-1.838,1.27-.622,3.18-2,5-3.528,4.66-10.66,7.23-14,12-1.48,2.11-1.211,5.29-3,7-4.571,4.36-9.117,3.48-10,12h-3v3h-4c-0.372,2.08-.242,1.92-1,3-6.347,5.9-16.442,5.38-26,3-1.714-4.93-7.7-11.07-10-17a7.7,7.7,0,0,1,0-6c-8.324-12.81-10.162-29.3-17-44-2.45.6-2.965,2.35-4,1a10.653,10.653,0,0,1-5-4,74.972,74.972,0,0,1-8,2v3c-7.527,1.4-11.01,8.12-16,12-4.426,3.44-9.56,4.61-14,8-1.128.86-1.912,4.21-3,5-5.084,3.67-9.038-.29-10,8-7.462.14-12.473,3.03-21-1-4.2-1.99-5-6.55-10-8-0.345-6.76-1.811-7.04-3-12-0.976-4.07,1.243-17.83,0-22-3.172-10.64-6.762-18.53-7-32-4.728-.95-8.793-3.98-13-6-2.229,5.23-10.206,5.16-15,8v2c-1.667.33-3.333,0.67-5,1v2h-6c-1.5.84-5.806,4.58-9,6h-5c-1.614.74-4.79,2.64-7,4q-0.5,1.5-1,3c-3.6,2.2-13.848,1.59-18,2-1.98-3.34-16.554-9.85-12-15-0.732-.88-2.626-1.59-3-3q1-6,2-12c-3.1-17.1,6.129-36.86,0-52-2.708-1.68-7.031-4.48-9-7-17.378,6.13-37.882,10.39-55,15-8.794,2.37-21.165-1.47-22-10h-3c-0.4-7.09-3.648-8.27-2-15,5.14-20.98,12.721-38.6,15-57-6.044-4.59-3.4-10.09-15-10-3.286,2.03-8.054-.65-11,0-15.287,3.37-33.732,2.19-49,3-1.422-3.55-6.752-6.35-10-8-1-6.88-4.607-14.6-2-20,1-.33,2-0.67,3-1q1-5.505,2-11h3c0.149-2.24,8.879-25.54,10-27,1-.33,2-0.67,3-1,0.333-2.67.667-5.33,1-8,0.3-.51,2.732-1.92,3-3,1.372-5.54-3-10.51-4-15-0.969.26-18.691-.47-23-2-0.666-.24-1.779-2.89-2-3-2.056-1.04-2.263,3.09-6,2-13.093-3.83-41.217-1.75-45-21,1.706-3.66-.937-8.27,1-13,1.353-3.31,11.061-14.46,14-17v-4h3c1.181-3.74.538-5.11,5-6,0.62-7.78,6.382-9.04,8-16,1.666-.33,3.334-0.67,5-1,1.539-9.36,1.081-10.14-1-19-5.886-1.4-12.112-5.93-17-8h-9c-10.3-4.04-30.807-10.7-38-18-6.816-6.92-6.9-25.31,4-28v-3c6.712-2.62,27.062-23.1,26-24,5.031-2.72,13.366-8.11,15-14,2.927-4.99-3.7-14.94-9-16-1.18-.8-1.681-0.77-4-1v-3c-11.4-2.73-14.162-8.63-23-14h-4c-4.512-2.5-4.64-6.21-12-7v-3h-3c-3.542-6.25-4.936-13.59-6-23,3.376-1.78,1.775-3.33,4-6,1.843-2.21,16.353-10.668,20-11v-3c5.507-.261,32.053-15.478,34-19,1.879-2.2,4.427-11.622,3-14-0.89-1.113-2.843-4.292-4-5h-4l-1-4c-2.932-3.875-7.491-8.6-14-9-1.13-5.368-3.754-3.806-5-9l-5-1c-0.788-4.245-2.6-6.254-7-7v-3c-3.221-1.764-5.176-2.55-6-7h-3c-0.652-9.017-.017-12.833,2-21,2.091-1.121,1.832-1.434,5-2v-3c6.717-.926,10.455-5.1,15-7l8-1c1.755-.858,4.431-3.408,7-4,1.77-.408,4.857,1.446,8,0,1.068-.491,2.935-3.491,4-4,5.787-2.763,15.813-1.873,19-7,0-.215,3.871-12.365,3-13-4.928-9.557-20.494-22.406-23-33-2.076-.372-1.924-0.242-3-1-5.346-6.58-12.415-15.362-13-26,3.032-2.543,2.4-3.864,2-8,5.447-1.794,5.985-7.2,11-9,5.13-1.847,13.195-2.078,20-2,11.713,0.134,26.18-6.991,42-7,1.739-3.882,6.3-7.537,7-12,0.813-5.175-2.8-3.482-4-6-1.313-2.747.431-5.8-1-8h-2v-4c-3.208-6.356-8.472-14.382-12-21q-0.5-4-1-8l-3-1a47.456,47.456,0,0,1-3-8c-3.272-11.545,2.567-13.109,4-21,4.4-.8,4.2-2.976,7-4h25c6.89-1.3,33.325.844,44,2,2.38-5.647,6.484-6.975,7-15-4.182-4.712-9.833-35.125-10-43h-3c0.376-7.136-3.482-23.48,3-29,1.766-1.5,5.135-.717,7-2,3.217-2.212,2.723-3.831,9-4,0.272,0.4,9.027,3.608,11,4,1.207,0.24,1.709-1.688,4-1,11.7,3.512,31.471,11.693,48,12,1.8-3.845,6.375-6.913,10-9-1.284-3.97-.512-13.679-1-16-3.734-17.763-2.084-34.957-2-53h3c3.756-7.951,9.736-9.415,22-9,5.146,5.725,15.279,4.665,22,9,4.022,2.594,10.969,9.3,16,10,1.085,0.151,2.684-1.93,5-1,4.842,1.944,7.031,6.731,14,8,2.806-4.159,8.611-3.269,11-8,2.883-5.628-.643-12.566,2-23,3.029-11.96,6.3-25.6,6-38h3q0.5-3,1-6c5.511-1.8,9.565-5.786,16-7,3.415,2.653,10.936,4.576,16,5v3c6.56,3.721,12.936,11.718,21,13v3h3c2.039,3.473,14.716,14.042,19,15,2.978,0.444,12.283-1.308,14-7,11.008-17.826,12.068-62.867,36-64,7.167-4.391,13.677,5.338,21,7v5c11.381,3.834,16.974,24.707,29,28v3c5.392,3.674,7.635,5.2,18,5,0.968,0.251.379,0.784,1,0,4.646-3.483,13.22-21.178,14-26h3v-2c0.8-1.18.773-1.681,1-4h3v-4c6.3-4.546,10.49-15.7,14-20,7.3-3.029,11.46-3.185,21-3,1.94,3.628,7.03,3.62,9,7v4C1045.06,432,1052.91,438.309,1054,447Zm-8,139c1.24-4.622,5.21-5.641,7-9,0,0,2.99-12.92,3-13,1.31-7.3-4.42-13.762-5-22-4.34-1.631-7.52-5.562-11-8-11.37-7.975-28.65-3.307-38,3-4.51,3.04-5.362,11.613-10,15,1.68,5.949-1.085,9.356,0,15,3.028,15.754,19.77,31.062,41,25C1037.94,590.59,1040.4,586.942,1046,586ZM787,653c-8.036-.118-4.153,2.345-11,4v3c-14.793,2.328-20.87,18.406-34,22v3c-2.99.69-6.686,3.143-9,5,0.752,1.073.6,0.946,1,3h-4c-3.341,6.387-3.952,2.213-6,4v3c-1.557,2-5.289,2.148-7,4-1.81,1.96-2.06,5.222-4,7-1.719,1.576-4.572,1.134-6,3-1.287,1.682-.6,4.3-2,6l-4,1v6c-1.56,3.264-6.325,6.541-11,7v3c-4.351,1.6-6.829,3.915-7,10h-3c-3.3,5.647-11.4,12.227-14,18-4.087,9.072-3.169,16.116-7,25-1.11,2.573-4.937,5.543-6,8q-0.5,5-1,10c-1.162,3.262-4.879,7.738-5,12-0.224,7.865,7.173,17.136,10,23,0.734,1.523.388,5.428,2,9,1.046,2.317,5.093,5.4,6,8,1.164,3.341-1.532,5.155,0,9,1.673,4.2,5.893,7.57,8,11,4.625,7.527,3.667,20.915,4,30h-3q-0.5,4.5-1,9h-3v3c-6.459,2.2-2.067,2.515-5,6-1.677,1.992-4.494.573-7,2q-0.5,1.5-1,3h-4v2h-3c-5.356,2.959-11.635,7.127-17,10-2.3,1.23-4.624.567-7,2-1.37.826-3.215,4.432-5,5l-3-1c-6.093,3.2-13.025,9.8-21,11v3a52.778,52.778,0,0,0-8,0c-1.107,2.951-1.489,2.661-4,4-0.742,19.66-3.5,33.54-4,52-0.008.31,1.92,6.61,2,7,0.74,3.63-2.133,12.51-1,18,1.333,6.45,3.01,20.08,2,25-2.072,10.09,7.694,19.71,2,26,6.351,6.35,1.8,11.45,5,22,0.315,1.04,2.71,2.5,3,3,0.855,1.48-.586,3.49-1,4,3.588,4.72,8.886,34.83,10,41h3v3c11.637,7.78,9.641,16.32,14,27,1.467,3.59,6.373,5.96,8,9-0.333,1.67-.667,3.33-1,5,0.559,2.02,4.231,4.25,5,6,2.631,5.99-1.874,8.17,5,10-0.7,9.26,4.626,13.61,5,26h3v3a27.4,27.4,0,0,1,11,12v4c0.5,0.8,3.458,2,4,3v4c1.333,0.33,2.667.67,4,1,1.681,1.81,1.476,5.06,3,7,1.02,1.3,3.99,1.72,5,3,1.494,1.89.673,3.94,2,6,1.515,2.36,5.269,3.85,7,6,4.312,5.36,8.425,16.36,16,18v4h3v3c11.922-2.31,20.35-4.76,36-5v-1c-1.8-2.78-.109-7.77-2-11-6.094-10.39-6.364-22.84-8-34-0.559-3.81,1.441-13.39,2-17q-1-10.5-2-21s1.817-2.78,2-3h-2q1-10.5,2-21c-2.313-6.81-.563-12.99,0-22,0.741-.97-1.81-0.86-2-2-0.716-4.31.279-10.37,1-17,0.446-4.1,1.554-29.49-1-40-1.877-7.72,3.232-14.31,2-20-2.883-13.3-2.837-34.89,0-50,0.238-1.27-1.8-7.62-2-9-0.689-4.85.181-11.1,1-15,0.807-3.85-.753-8.65-1-11-0.845-8.07.663-24.99,2-33q-0.5-3-1-6c10.287-46.8,37.784-74.919,84-76-0.407-19.118-2.966-32.693,1-50-4.014-11.749-2.358-42.035,0-53,2.036-9.468-1.648-22.5,1-29,2.816-6.918,4.522-13.641,7-21,2.328-6.915.511-13.066,4-19,0.439-.746,3.506-2.049,4-3,0.374-.72-1-2.657,0-5,1.751-4.124,5.346-8.757,8-12,0.381-.466.614-5.613,2-8,0.915-1.576,4.087-3.322,5-5,0.463-.852-1.451-2.079,0-4,4.383-5.8,20.717-22.543,22-29h3c1.069-4.251,3.348-7.188,8-8,0.372-2.076.242-1.924,1-3,5.9-5.824,30.9-28.166,38-30,1.216,0.745.992,0.137,4,0v-3c16.645-2.19,27.836-16.183,44-17v-3c-3.394-1.205-10.53-7.508-11-12h-3c-1.074-3.7-2.8-6.2-7-7v-3c-24.664,4.269-55.358,11.994-75,23l-6-1c-5.147,2.213-10.8,7.988-16,10-4.651,1.8-9.252.328-13,3q-0.5,1.5-1,3l-10,3c-1.633,1.379-2.98,5.05-5,6C809.538,639.039,789.426,643.681,787,653Zm297-39c11.26,1.138,20.77,6.432,30,12,4.38,2.643,9.31,1.692,14,4,5.28,2.6,4,7.3,12,8,1.07,0.752.95,0.6,3,1,0.37,2.076.24,1.924,1,3,3.48,3.351,14.91,12.153,20,13v3c4.47,1.424,3.54,3.735,8,5v4c5.65,1.079,6.1,2.255,8,7h3v5c4.53,2.343,5.03,6.616,10,8,1.21,5.871,9.31,14.911,13,19,0.32,0.355-.3,3.592,1,6,3.8,7.059,9.89,14.921,14,22,2.66,4.58.59,10.319,3,15,3.23,6.27,6.62,15.353,9,22,1.17,3.259-1.67,6.217,0,11,1,2.867,6.94,24.171,2,30,6.22,8.7-.12,17.25,1,28,2.5,23.923,1.37,45.444,2,73a78.873,78.873,0,0,1,31,6c1.44,0.611,2.84,3.474,4,4h7c0.33,1.333.67,2.667,1,4a25.341,25.341,0,0,0,12,6,12.527,12.527,0,0,1-1,4c4.97,1.247,10.44,6.3,11,12h3c1.42,8.395,6.1,10.771,9,17v6c0.54,1.455,3.51,2.862,4,4,0.87,2.021-.77,2.9-1,4,0.44,1.363,2.62,4.63,3,6,1.93,6.874-1.82,20.52,0,30,2.28,11.84-1.17,27.52,0,42,0.52,6.48,2.31,11.32,1,20-0.67,3-1.33,6-2,9,2.18,20,3.16,43.8,0,66-0.29,2.04,1.73,3.83,2,5,1.38,6.08-.63,21.13-2,29-0.91,5.22,1.02,20.67,2,26-0.33,2-.67,4-1,6,0.02,7.87.48,15.07-1,23-0.13.68,1.89,5.47,2,6,0.71,3.39-1.5,5.95-2,8-1.46,5.94,3.42,14.37,2,22-1.63,8.74-1.3,18.14-4,27-1.64,5.4-5.43,8.83-6,16h1v1c11.17-.03,26.76,2.28,35,5,1.41-5.73,6.05-7.17,9-11,0.67-2,1.33-4,2-6h4c3.27-2.6,9.71-13.98,13-18-2.35-3.24-.83-2.35,0-7,2-.33,4-0.67,6-1,1.14-7.41,6.39-15.68,9-20,0.16-.27,0-7,0-7v-1c1.63-2.35,4.92-7.17,6-10v-6c0.33-.56,3.64-1.44,4-2v-5h2c0.67-2.33,1.33-4.67,2-7h2c2.31-3.7.93-7.2,3-11h2v-6c0.68-1.61,4.45-4.61,5-6-0.33-1.67-.67-3.33-1-5,0.41-1.13,3.41-3.63,4-5,1.62-3.79,1.04-10.66,3-14,0.44-.75,3.48-2.06,4-3,0.33-1.67.67-3.33,1-5,1-.33,2-0.67,3-1,1.04-1.57-.83-5.06,1-8,0.31-.49,2.7-1.09,3-2-0.33-1.67-.67-3.33-1-5h2c3.21-6.33.94-14.09,3-21,0.62-2.08,3.47-5.19,4-7-0.33-1.67-.67-3.33-1-5,0.5-.88,7.47-5.83,8-7-0.33-2.33-.67-4.67-1-7h2c0.62-1.05,1.88-3.71,2-4,0.33-3.33.67-6.67,1-10,2.55-4.9,5.8-11.1,5-15-1.24-6.04,5.29-19.51,7-24,2.06-5.41-1.59-12.83-1-17,2.1-14.88.76-38.565-1-49-1.11-6.622,1.95-14.772-2-20-5.23-5.747-10.82-5.7-19-9-4.49-1.812-10.87-7.29-15-10l-6-1c-2.66-1.627-6.96-5.623-10-7h-5c-5.39-3.041.82-4.769-9-4v-3c-21.89-4.844-26.85-26.389-26-49h3c0.49-10.362,7.13-16.315,11-23,1.48-2.564.72-5.5,2-8,3.07-6,8.91-12.217,12-18,2.56-4.787,1.72-9.222,4-14,2.83-5.952,7.19-8.245,7-15h-3c-2.33-12.506-10.49-19.44-17-32h-3v-4c-6.19-4.994-8.88-13.818-15-19v-3c-4.79-1.05-3.23-2.884-8-4v-4c-7.59-6.4-16.21-23.449-26-26v-3c-5.07-2.745-15.48-12.1-17-18l-6-1v-3c-5.98-2.454-4.98-5.418-8-8-1.67-.333-3.33-0.667-5-1-8.96-6.859-16.25-18.015-29-21v-3c-16.61-4.983-26.42-22.828-46-24v-3c-1.16-.117-16.99-6.281-18-7-0.65-.463-2.35-3.641-3-4l-9-1-4-5c-1.79-1-3.79,1.346-7,0-0.86-.36-1.51-2.691-2-3l-9-2c-1.87-.887-6.28-4.359-8-5-1.67.333-3.33,0.667-5,1-0.84-.261-4.16-3.733-5-4-1.67.333-3.33,0.667-5,1-4.88-1.169-7.97-3.752-15-4-0.37-2.076-.24-1.924-1-3-4.33,2.6-20.91-4.483-30-5-4.99,7.738-14.76,16.626-23,21v3ZM906,789h-3c-0.019,11.554-2.179,15.209-3,25-0.067.8,1.925,3.584,2,4,0.573,3.193-3.267,16.579-2,19,0.68,1.3,2.626.337,2,4-0.888,5.192,1.205,14.433,0,22-0.051.32-2.149,4.44-2,5l2,1c1.236,4.265-1.776,7.568-2,10-0.288,3.129,1.634.853,2,3q-0.5,4.5-1,9c0.011,9.181.524,15.2,1,22,8.546,0.018,18.34-1.419,23-1,1.735,0.156,4.846,1.6,8,1,2.155-.409,3.769-1.564,7-1a108.845,108.845,0,0,0,34,0l10,1c10.336-.411,22.5.476,31-1,3.71-.645,13.46,1.491,17,2,7.55,1.087,15.08-4.056,25-2,9.12,1.891,27.39,1.406,36,0,3.56-.58,5.51.974,8,1,10.84,0.112,19.94,1.076,30-1,5.22-1.078,11.75,3.815,15-1,3.71-7.293-1.35-24.432,0-35,1.33-10.482,3.26-38.462,0-53-1.76-7.877,2.97-17.765,1-24-0.18-.578-2.96-1.916-3-2-1.39-3.083,1.78-6.951,0-11-0.26-.585-2.71-2.2-3-3-0.33-3.333-.67-6.667-1-10-0.89-2.027-4.03-4.945-5-7-3.42-7.225-5.31-17.312-12-21-1.07-.752-0.95-0.6-3-1-0.2-2.328-.19-2.826-1-4-3.21-9.442-18.34-18.8-27-24-1.67-2-3.33-4-5-6-0.69-.4-4.64.513-7-1-4.13-2.644-10.06-7.455-15-9-1.08-.336-1.81,1.854-4,1-0.67-1-1.33-2-2-3h-10c-2.91-.821-6.53-1.982-10-3h-13v-2c-1.56-.753-4.24,1.829-5,2-2.02.458-6.07-1.031-7-2-0.76.641-.83,2.616-2,3l-6-1c-3.62.654-8.522,2.754-12,3-15.671,1.107-50.87,22.347-63,37v4c-1,1.547-9.26,7.731-11,10-2.8,3.647-2.482,11.366-5,15l-4,1C908.53,768.207,905.567,784.827,906,789Zm818-48v3c-15.4,6.813-24.8,38.939-18,60,0.93,2.869,3.8,3.073,5,5,0.33,2.333.67,4.667,1,7,1.14,1.91,3.71,3.673,5,6h3v4c19.56,9.345,33.23,20.472,56,10,2.58-1.188,10.91-.744,14-4,0.33-1.667.67-3.333,1-5h5c2.63-1.638,11.2-13.53,12-17,0.96-1.418.98-3.273,1-6h3v-2c10.32-19.477-7.24-57.967-25-63v-3c-10.75-.993-18.43-6.761-31-7-1.46-.028-5.29,2.729-6,3h-7c-0.67,1-1.33,2-2,3-1.67-.333-3.33-0.667-5-1C1731.93,735.183,1729.3,739.943,1724,741ZM262,739l-6,1v3h-3c-2.59,4.016-5.682,5.812-9,9-6.941,6.669-13.762,37.3-9,49,2.923,7.178,10.507,13.684,12,22h3c6.642,14.9,44.284,22.9,62,13,6.755-3.776,12.352-12.86,20-15,1.27-4.567,5.4-6.949,7-11,4.048-10.26,3.748-22.007,5-30,1.624-10.362-6.43-18.28-10-24-1.783-2.857-2.918-7.634-5-10-4.919-5.59-32.773-20.957-47-16a199.123,199.123,0,0,1-20,6v3Zm1020,54h4c1.53,2.859,5.34,7.571,4,10-0.67,1-1.33,2-2,3h-1v-1C1282.85,802.4,1279.7,799.335,1282,793ZM564,907c5.082,1,8.621,4.461,13,6,5.537,1.945,22.316-3,26-6,2.418-2.177,4.259-4.019,5-8h3c4.507-15.7,7.824-33.368-8-44-6.074-4.593-23.211-8.867-32-4-2.889,1.6-5.1,4.3-9,6,0.058,2.906.964,1.389,0,3-0.861.7-4.3,1.144-5,2v4c-0.75,1.77-3.468,3.492-4,5-1.585,4.49-1.011,20.573,3,26h2C560.281,899.455,563.073,903.5,564,907Zm881-53c-0.37,2.076-.24,1.924-1,3-11.5,9.39-15.42,21.681-8,35,3.18,5.7.77,10.464,7,13,13.47,12.358,23.72,5.793,40,3v-4h3c1.42-2.622,4.69-3.623,6-6,2.96-5.38,4.58-23.564,2-29-2.41-5.083-8.38-8.153-10-14-5.54-.873-10.09-4.787-16-6C1458.74,847.1,1454.06,853.218,1445,854ZM995,1070c-1.313,6.37-6.272,9.28-9,14-3.69,6.39,1.381,29.83,4,31,1.456,2.5.586,2.16,4,3,0.075,3.04.756,2.74,0,4,1.679,1.97,3.133,5.12,5,7,3.14,3.16,13.09,2.47,15,9-3.81,6.14.56,15.53-1,23-1.02,4.88,1.31,7.61,1,13-0.64,10.96-.23,27.27-1,41,3.49,0.76,7.81,3.7,10,6,3.77-1.18,8.39-2.32,10-6,3.15-5.14,1.34-17.27,2-24,1.71-17.32-2.54-40.62,0-56,4.75-1.95,13.44-4.85,17-8,2.95-2.61,10.25-18.05,11-22,0.42-2.22-1.68-3.75-1-7,0.24-1.17,2.34-4.16,2-6-0.39-2.07-3.36-3.64-4-5-0.36-.77,1.62-1.99,1-4-1.27-4.09-5.13-9.2-10-10,0.07-3.04.76-2.74,0-4-7.26-8.43-30.31-15.17-43-8C1003.39,1063.6,1000.84,1068.7,995,1070ZM732,1372c-0.858,4.26-1.971,2.99-3,7h-3c-0.712,7.04-5.115,7.45-6,13-1.764,11.07,4.6,23.1,9,29,12.916,13.92,43.8,9.07,51-7,4.2-5.26,6.135-25.46-1-35-2-2.68-2.4,1.43-4-4-3.868-.76-21.364-12.65-27-10C743.388,1367.17,738.7,1371.05,732,1372Zm421,76v-3c23.1,1.29,38.27-17.64,60-20-0.19-17.31,5.18-43.7,9-59h-2c-4.53-2.53-13.89,2.22-20,1-20.06-4.02-42.55,2.75-62-1q-7.5.495-15,1c-1.83-1.87-20.77-.96-30-1,0,0-9.52,2-14,1-14.06-3.15-29.98,1.62-45,0-18.22-1.96-33.49.12-55,0-20.663-.11-49.293-3.04-68,0-4.663.76-20.524-2.57-22-2-10.031,3.84-33.9,2.07-46,0-5.318-.91-11.286,1.35-17,1v1c1.334,2.2.128,5.69,1,9,2.417,9.18,4.017,23.49,7,35,1.22,4.71-.679,10.67,2,14,2.417,3,12.243,2.84,16,5q0.5,1.5,1,3c4.354,3.24,10.176,2.15,16,4,3.159,1,4.6,4.19,6,5,1.667-.33,3.333-0.67,5-1,3.9,1.13,10.489,5.24,14,7,2.333-.33,4.667-0.67,7-1q0.5,1.5,1,3h5c7.605,2.41,15.169,3.54,22,7h11c19.992,8.21,75.35,11.22,95,8q8.505,0.495,17,1c8.62-1.1,23.21-2.05,32-5,4.44-1.49,11.45,1.47,15,0v-2c4.56-2.24,18.14-1.28,24-3C1131.85,1453.41,1142.13,1449.01,1153,1448Zm139-82c-3.46,3.55-6.39.6-10,2-12.58,4.88-23.55,32.56-15,44,1.63,2.96,4.14,2.54,5,4,0.79,1.34-1.63,4.8,3,8,10.16,7.01,34.5,8.02,40-3,1.73,0.79,1.84,2.63,3,1a18.468,18.468,0,0,0,5-7c-0.02-.08-1.93-1.43-1-3C1335.18,1389.84,1319.83,1365.71,1292,1366ZM536,1608c-1.667.33-3.333,0.67-5,1-3.493,8.23-11.584,14.71-15,23-1.338,3.25-1.746,25.62-1,28,0.225,0.72,2.824,2.52,3,3-0.333,1.67-.667,3.33-1,5,2.284,7.84,14.284,16.69,16,24,7.528,1.26,15.211,7.52,21,11,4.326,2.6,5.279-1.15,10,0l2,2c11.466,3.28,23.621-7.62,34-8v-3h3c3.395-6.77,12.01-11.58,16-18,9.974-16.04,6.7-56.19-9-64-1.073-.75-0.946-0.6-3-1v-4c-6.2-1.19-9.179-8.2-14-9-7.916-1.31-16.583-3.75-26-5C559.859,1592.05,537.524,1602.28,536,1608Zm930-11c-8.04-.29-23.01,4.96-25,14h-4c-2.32,6.7-7.53,8.95-8,18h-3c-0.51,3.78-2.64,7.05-3,10-0.48,3.97,2.3,9.03,1,15-0.06.28-2.36,2.18-2,3,1,0.33,2,.67,3,1-0.33,1.67-.67,3.33-1,5,1.29,3.48,8.99,14.97,10,21h4v4c4.29,1.58,4.79,4.91,8,7,11.53,7.5,37.4,13.88,53,6,1.11-.56,2.89-3.44,4-4,3.18-1.61,7.22-2.03,10-4,4.27-3.03,3.71-8.46,10-10,0.28-1.32,4.15-12.56,5-14,1-.67,2-1.33,3-2,2.13-4.53.96-14.42,2-20,0.09-.5,1.71-2.94,1-5-2.78-8.09-8.06-15.31-9-24-1.67-.33-3.33-0.67-5-1,0.11-4.49-.04-6.73-4-9h-4c-3.76-2.72-2.33-6.24-9-7-1.18-.8-1.68-0.77-4-1v-3c-8.3-.21-11.79-2.8-17-4-4.21-.97-9.5,3.28-16,1v3Z" transform="translate(-6.844 -6.094)"/>
</svg>
